<svg xmlns="http://www.w3.org/2000/svg" xmlns:xlink="http://www.w3.org/1999/xlink" width="500" zoomAndPan="magnify" viewBox="0 0 375 374.999991" height="500" preserveAspectRatio="xMidYMid meet" version="1.0"><defs><g/><clipPath id="90d4caca08"><path d="M 163.808594 282.179688 L 331.808594 282.179688 L 331.808594 354.0625 L 163.808594 354.0625 Z M 163.808594 282.179688 " clip-rule="nonzero"/></clipPath></defs><g fill="#4f4f4f" fill-opacity="0.2118"><g transform="translate(33.734887, 273.301012)"><g><path d="M 182.15625 -249.6875 C 204.507812 -249.6875 224.828125 -244.472656 243.109375 -234.046875 C 261.390625 -223.617188 275.890625 -208.8125 286.609375 -189.625 C 297.335938 -170.445312 302.703125 -148.171875 302.703125 -122.796875 C 302.703125 -97.421875 297.335938 -75.140625 286.609375 -55.953125 C 275.890625 -36.773438 261.390625 -21.972656 243.109375 -11.546875 C 224.828125 -1.128906 204.507812 4.078125 182.15625 4.078125 C 153.457031 4.078125 130.648438 -4.53125 113.734375 -21.75 L 113.734375 87.90625 L 27.640625 87.90625 L 27.640625 -245.609375 L 109.65625 -245.609375 L 109.65625 -221.125 C 125.664062 -240.164062 149.832031 -249.6875 182.15625 -249.6875 Z M 164.03125 -64.34375 C 179.132812 -64.34375 191.519531 -69.550781 201.1875 -79.96875 C 210.851562 -90.394531 215.6875 -104.671875 215.6875 -122.796875 C 215.6875 -140.921875 210.851562 -155.191406 201.1875 -165.609375 C 191.519531 -176.035156 179.132812 -181.25 164.03125 -181.25 C 148.925781 -181.25 136.539062 -176.035156 126.875 -165.609375 C 117.207031 -155.191406 112.375 -140.921875 112.375 -122.796875 C 112.375 -104.671875 117.207031 -90.394531 126.875 -79.96875 C 136.539062 -69.550781 148.925781 -64.34375 164.03125 -64.34375 Z M 164.03125 -64.34375 "/></g></g></g><g fill="#3a3a3a" fill-opacity="1"><g transform="translate(24.053306, 264.583675)"><g><path d="M 182.15625 -249.6875 C 204.507812 -249.6875 224.828125 -244.472656 243.109375 -234.046875 C 261.390625 -223.617188 275.890625 -208.8125 286.609375 -189.625 C 297.335938 -170.445312 302.703125 -148.171875 302.703125 -122.796875 C 302.703125 -97.421875 297.335938 -75.140625 286.609375 -55.953125 C 275.890625 -36.773438 261.390625 -21.972656 243.109375 -11.546875 C 224.828125 -1.128906 204.507812 4.078125 182.15625 4.078125 C 153.457031 4.078125 130.648438 -4.53125 113.734375 -21.75 L 113.734375 87.90625 L 27.640625 87.90625 L 27.640625 -245.609375 L 109.65625 -245.609375 L 109.65625 -221.125 C 125.664062 -240.164062 149.832031 -249.6875 182.15625 -249.6875 Z M 164.03125 -64.34375 C 179.132812 -64.34375 191.519531 -69.550781 201.1875 -79.96875 C 210.851562 -90.394531 215.6875 -104.671875 215.6875 -122.796875 C 215.6875 -140.921875 210.851562 -155.191406 201.1875 -165.609375 C 191.519531 -176.035156 179.132812 -181.25 164.03125 -181.25 C 148.925781 -181.25 136.539062 -176.035156 126.875 -165.609375 C 117.207031 -155.191406 112.375 -140.921875 112.375 -122.796875 C 112.375 -104.671875 117.207031 -90.394531 126.875 -79.96875 C 136.539062 -69.550781 148.925781 -64.34375 164.03125 -64.34375 Z M 164.03125 -64.34375 "/></g></g></g><g clip-path="url(#90d4caca08)"><path fill="#d9981e" d="M 125.253906 321.046875 C 124.183594 321.046875 123.3125 320.179688 123.3125 319.105469 L 123.3125 317.0625 C 123.3125 315.992188 124.183594 315.125 125.253906 315.125 C 126.328125 315.125 127.195312 315.992188 127.195312 317.0625 L 127.195312 319.105469 C 127.195312 320.179688 126.328125 321.046875 125.253906 321.046875 Z M 134.410156 322.167969 L 134.410156 314 C 134.410156 312.929688 133.542969 312.058594 132.46875 312.058594 C 131.398438 312.058594 130.53125 312.929688 130.53125 314 L 130.53125 322.167969 C 130.53125 323.242188 131.398438 324.109375 132.46875 324.109375 C 133.542969 324.109375 134.410156 323.242188 134.410156 322.167969 Z M 141.621094 328.960938 L 141.621094 307.210938 C 141.621094 306.136719 140.753906 305.269531 139.679688 305.269531 C 138.609375 305.269531 137.742188 306.136719 137.742188 307.210938 L 137.742188 328.960938 C 137.742188 330.03125 138.609375 330.898438 139.679688 330.898438 C 140.753906 330.898438 141.621094 330.03125 141.621094 328.960938 Z M 148.835938 322.167969 L 148.835938 314 C 148.835938 312.929688 147.96875 312.058594 146.898438 312.058594 C 145.824219 312.058594 144.957031 312.929688 144.957031 314 L 144.957031 322.167969 C 144.957031 323.242188 145.824219 324.109375 146.898438 324.109375 C 147.96875 324.109375 148.835938 323.242188 148.835938 322.167969 Z M 156.050781 320.261719 L 156.050781 315.90625 C 156.050781 314.835938 155.183594 313.964844 154.113281 313.964844 C 153.039062 313.964844 152.171875 314.835938 152.171875 315.90625 L 152.171875 320.261719 C 152.171875 321.335938 153.039062 322.203125 154.113281 322.203125 C 155.183594 322.203125 156.050781 321.335938 156.050781 320.261719 Z M 163.261719 324.621094 L 163.261719 311.550781 C 163.261719 310.476562 162.394531 309.609375 161.324219 309.609375 C 160.25 309.609375 159.382812 310.476562 159.382812 311.550781 L 159.382812 324.621094 C 159.382812 325.691406 160.25 326.558594 161.324219 326.558594 C 162.394531 326.558594 163.261719 325.691406 163.261719 324.621094 Z M 170.480469 331.871094 L 170.480469 304.300781 C 170.480469 303.226562 169.609375 302.359375 168.539062 302.359375 C 167.464844 302.359375 166.597656 303.226562 166.597656 304.300781 L 166.597656 331.871094 C 166.597656 332.941406 167.464844 333.808594 168.539062 333.808594 C 169.609375 333.808594 170.480469 332.941406 170.480469 331.871094 Z M 177.695312 340.753906 L 177.695312 295.417969 C 177.695312 294.34375 176.828125 293.476562 175.753906 293.476562 C 174.683594 293.476562 173.8125 294.34375 173.8125 295.417969 L 173.8125 340.753906 C 173.8125 341.824219 174.683594 342.695312 175.753906 342.695312 C 176.828125 342.695312 177.695312 341.824219 177.695312 340.753906 Z M 184.90625 331.207031 L 184.90625 304.964844 C 184.90625 303.890625 184.035156 303.023438 182.964844 303.023438 C 181.890625 303.023438 181.023438 303.890625 181.023438 304.964844 L 181.023438 331.207031 C 181.023438 332.277344 181.890625 333.148438 182.964844 333.148438 C 184.035156 333.148438 184.90625 332.277344 184.90625 331.207031 Z M 192.121094 324.621094 L 192.121094 311.550781 C 192.121094 310.476562 191.253906 309.609375 190.179688 309.609375 C 189.109375 309.609375 188.242188 310.476562 188.242188 311.550781 L 188.242188 324.621094 C 188.242188 325.691406 189.109375 326.558594 190.179688 326.558594 C 191.253906 326.558594 192.121094 325.691406 192.121094 324.621094 Z M 199.335938 322.167969 L 199.335938 314 C 199.335938 312.929688 198.46875 312.058594 197.398438 312.058594 C 196.324219 312.058594 195.457031 312.929688 195.457031 314 L 195.457031 322.167969 C 195.457031 323.242188 196.324219 324.109375 197.398438 324.109375 C 198.46875 324.109375 199.335938 323.242188 199.335938 322.167969 Z M 206.546875 319.546875 L 206.546875 316.621094 C 206.546875 315.550781 205.679688 314.679688 204.605469 314.679688 C 203.535156 314.679688 202.667969 315.550781 202.667969 316.621094 L 202.667969 319.546875 C 202.667969 320.621094 203.535156 321.488281 204.605469 321.488281 C 205.679688 321.488281 206.546875 320.621094 206.546875 319.546875 Z M 213.761719 323.855469 L 213.761719 312.316406 C 213.761719 311.242188 212.894531 310.375 211.824219 310.375 C 210.75 310.375 209.882812 311.242188 209.882812 312.316406 L 209.882812 323.855469 C 209.882812 324.925781 210.75 325.792969 211.824219 325.792969 C 212.894531 325.792969 213.761719 324.925781 213.761719 323.855469 Z M 220.980469 321.453125 L 220.980469 314.714844 C 220.980469 313.644531 220.109375 312.773438 219.039062 312.773438 C 217.964844 312.773438 217.097656 313.644531 217.097656 314.714844 L 217.097656 321.453125 C 217.097656 322.527344 217.964844 323.394531 219.039062 323.394531 C 220.109375 323.394531 220.980469 322.527344 220.980469 321.453125 Z M 228.1875 329.828125 L 228.1875 306.34375 C 228.1875 305.269531 227.320312 304.402344 226.25 304.402344 C 225.175781 304.402344 224.308594 305.269531 224.308594 306.34375 L 224.308594 329.828125 C 224.308594 330.898438 225.175781 331.769531 226.25 331.769531 C 227.320312 331.769531 228.1875 330.898438 228.1875 329.828125 Z M 235.40625 340.039062 L 235.40625 296.132812 C 235.40625 295.058594 234.535156 294.191406 233.464844 294.191406 C 232.390625 294.191406 231.523438 295.058594 231.523438 296.132812 L 231.523438 340.039062 C 231.523438 341.109375 232.390625 341.980469 233.464844 341.980469 C 234.535156 341.980469 235.40625 341.109375 235.40625 340.039062 Z M 242.621094 352.089844 L 242.621094 284.082031 C 242.621094 283.007812 241.753906 282.140625 240.679688 282.140625 C 239.609375 282.140625 238.742188 283.007812 238.742188 284.082031 L 238.742188 352.089844 C 238.742188 353.160156 239.609375 354.027344 240.679688 354.027344 C 241.753906 354.027344 242.621094 353.160156 242.621094 352.089844 Z M 249.832031 340.039062 L 249.832031 296.132812 C 249.832031 295.058594 248.964844 294.191406 247.890625 294.191406 C 246.820312 294.191406 245.949219 295.058594 245.949219 296.132812 L 245.949219 340.039062 C 245.949219 341.109375 246.820312 341.980469 247.890625 341.980469 C 248.964844 341.980469 249.832031 341.109375 249.832031 340.039062 Z M 257.046875 329.828125 L 257.046875 306.34375 C 257.046875 305.269531 256.179688 304.402344 255.105469 304.402344 C 254.035156 304.402344 253.167969 305.269531 253.167969 306.34375 L 253.167969 329.828125 C 253.167969 330.898438 254.035156 331.769531 255.105469 331.769531 C 256.179688 331.769531 257.046875 330.898438 257.046875 329.828125 Z M 264.261719 321.660156 L 264.261719 314.511719 C 264.261719 313.4375 263.394531 312.570312 262.324219 312.570312 C 261.25 312.570312 260.382812 313.4375 260.382812 314.511719 L 260.382812 321.660156 C 260.382812 322.730469 261.25 323.597656 262.324219 323.597656 C 263.394531 323.597656 264.261719 322.730469 264.261719 321.660156 Z M 271.480469 324.160156 L 271.480469 312.007812 C 271.480469 310.9375 270.609375 310.070312 269.539062 310.070312 C 268.464844 310.070312 267.597656 310.9375 267.597656 312.007812 L 267.597656 324.160156 C 267.597656 325.234375 268.464844 326.101562 269.539062 326.101562 C 270.605469 326.101562 271.480469 325.234375 271.480469 324.160156 Z M 278.6875 329.828125 L 278.6875 306.34375 C 278.6875 305.269531 277.820312 304.402344 276.75 304.402344 C 275.675781 304.402344 274.808594 305.269531 274.808594 306.34375 L 274.808594 329.828125 C 274.808594 330.898438 275.675781 331.769531 276.75 331.769531 C 277.820312 331.769531 278.6875 330.898438 278.6875 329.828125 Z M 285.90625 338.148438 L 285.90625 298.019531 C 285.90625 296.949219 285.035156 296.078125 283.964844 296.078125 C 282.890625 296.078125 282.023438 296.949219 282.023438 298.019531 L 282.023438 338.148438 C 282.023438 339.222656 282.890625 340.089844 283.964844 340.089844 C 285.035156 340.089844 285.90625 339.222656 285.90625 338.148438 Z M 293.121094 329.828125 L 293.121094 306.34375 C 293.121094 305.269531 292.253906 304.402344 291.179688 304.402344 C 290.109375 304.402344 289.242188 305.269531 289.242188 306.34375 L 289.242188 329.828125 C 289.242188 330.898438 290.109375 331.769531 291.179688 331.769531 C 292.246094 331.769531 293.121094 330.898438 293.121094 329.828125 Z M 300.332031 324.160156 L 300.332031 312.007812 C 300.332031 310.9375 299.464844 310.070312 298.390625 310.070312 C 297.320312 310.070312 296.449219 310.9375 296.449219 312.007812 L 296.449219 324.160156 C 296.449219 325.234375 297.320312 326.101562 298.390625 326.101562 C 299.464844 326.101562 300.332031 325.234375 300.332031 324.160156 Z M 307.546875 320.484375 L 307.546875 315.683594 C 307.546875 314.613281 306.679688 313.746094 305.605469 313.746094 C 304.535156 313.746094 303.667969 314.613281 303.667969 315.683594 L 303.667969 320.484375 C 303.667969 321.558594 304.535156 322.425781 305.605469 322.425781 C 306.679688 322.425781 307.546875 321.558594 307.546875 320.484375 Z M 314.761719 322.988281 L 314.761719 313.183594 C 314.761719 312.113281 313.894531 311.242188 312.824219 311.242188 C 311.75 311.242188 310.882812 312.113281 310.882812 313.183594 L 310.882812 322.988281 C 310.882812 324.058594 311.75 324.925781 312.824219 324.925781 C 313.890625 324.925781 314.761719 324.058594 314.761719 322.988281 Z M 321.972656 321.199219 L 321.972656 314.96875 C 321.972656 313.898438 321.105469 313.03125 320.03125 313.03125 C 318.960938 313.03125 318.09375 313.898438 318.09375 314.96875 L 318.09375 321.199219 C 318.09375 322.273438 318.960938 323.140625 320.03125 323.140625 C 321.105469 323.140625 321.972656 322.273438 321.972656 321.199219 Z M 329.1875 326.765625 L 329.1875 309.40625 C 329.1875 308.332031 328.320312 307.464844 327.25 307.464844 C 326.175781 307.464844 325.308594 308.332031 325.308594 309.40625 L 325.308594 326.765625 C 325.308594 327.835938 326.175781 328.703125 327.25 328.703125 C 328.320312 328.703125 329.1875 327.835938 329.1875 326.765625 Z M 336.40625 334.730469 L 336.40625 301.441406 C 336.40625 300.367188 335.535156 299.5 334.464844 299.5 C 333.390625 299.5 332.523438 300.367188 332.523438 301.441406 L 332.523438 334.730469 C 332.523438 335.800781 333.390625 336.667969 334.464844 336.667969 C 335.53125 336.667969 336.40625 335.800781 336.40625 334.730469 Z M 343.613281 345.960938 L 343.613281 290.207031 C 343.613281 289.136719 342.746094 288.269531 341.675781 288.269531 C 340.601562 288.269531 339.734375 289.136719 339.734375 290.207031 L 339.734375 345.960938 C 339.734375 347.035156 340.601562 347.902344 341.675781 347.902344 C 342.746094 347.902344 343.613281 347.035156 343.613281 345.960938 Z M 350.832031 333.863281 L 350.832031 302.308594 C 350.832031 301.238281 349.964844 300.367188 348.890625 300.367188 C 347.820312 300.367188 346.949219 301.238281 346.949219 302.308594 L 346.949219 333.863281 C 346.949219 334.933594 347.820312 335.800781 348.890625 335.800781 C 349.964844 335.800781 350.832031 334.933594 350.832031 333.863281 Z M 422.707031 333.863281 L 422.707031 302.308594 C 422.707031 301.238281 421.839844 300.367188 420.765625 300.367188 C 419.695312 300.367188 418.824219 301.238281 418.824219 302.308594 L 418.824219 333.863281 C 418.824219 334.933594 419.695312 335.800781 420.765625 335.800781 C 421.839844 335.800781 422.707031 334.933594 422.707031 333.863281 Z M 358.046875 323.957031 L 358.046875 312.214844 C 358.046875 311.140625 357.179688 310.273438 356.105469 310.273438 C 355.035156 310.273438 354.167969 311.140625 354.167969 312.214844 L 354.167969 323.957031 C 354.167969 325.027344 355.035156 325.898438 356.105469 325.898438 C 357.179688 325.898438 358.046875 325.027344 358.046875 323.957031 Z M 408.410156 323.957031 L 408.410156 312.214844 C 408.410156 311.140625 407.542969 310.273438 406.46875 310.273438 C 405.398438 310.273438 404.53125 311.140625 404.53125 312.214844 L 404.53125 323.957031 C 404.53125 325.027344 405.398438 325.898438 406.46875 325.898438 C 407.542969 325.898438 408.410156 325.027344 408.410156 323.957031 Z M 365.257812 320.230469 L 365.257812 315.941406 C 365.257812 314.867188 364.390625 314 363.316406 314 C 362.246094 314 361.375 314.867188 361.375 315.941406 L 361.375 320.230469 C 361.375 321.300781 362.246094 322.167969 363.316406 322.167969 C 364.390625 322.167969 365.257812 321.300781 365.257812 320.230469 Z M 372.472656 322.066406 L 372.472656 314.101562 C 372.472656 313.03125 371.605469 312.164062 370.53125 312.164062 C 369.460938 312.164062 368.59375 313.03125 368.59375 314.101562 L 368.59375 322.066406 C 368.59375 323.140625 369.460938 324.007812 370.53125 324.007812 C 371.605469 324.007812 372.472656 323.140625 372.472656 322.066406 Z M 401.261719 322.066406 L 401.261719 314.101562 C 401.261719 313.03125 400.394531 312.164062 399.324219 312.164062 C 398.25 312.164062 397.382812 313.03125 397.382812 314.101562 L 397.382812 322.066406 C 397.382812 323.140625 398.25 324.007812 399.324219 324.007812 C 400.394531 324.007812 401.261719 323.140625 401.261719 322.066406 Z M 379.6875 328.703125 L 379.6875 307.464844 C 379.6875 306.394531 378.820312 305.523438 377.75 305.523438 C 376.675781 305.523438 375.808594 306.394531 375.808594 307.464844 L 375.808594 328.703125 C 375.808594 329.777344 376.675781 330.644531 377.75 330.644531 C 378.820312 330.644531 379.6875 329.777344 379.6875 328.703125 Z M 429.855469 328.703125 L 429.855469 307.464844 C 429.855469 306.394531 428.984375 305.523438 427.914062 305.523438 C 426.84375 305.523438 425.972656 306.394531 425.972656 307.464844 L 425.972656 328.703125 C 425.972656 329.777344 426.84375 330.644531 427.914062 330.644531 C 428.984375 330.644531 429.855469 329.777344 429.855469 328.703125 Z M 415.558594 328.703125 L 415.558594 307.464844 C 415.558594 306.394531 414.691406 305.523438 413.617188 305.523438 C 412.546875 305.523438 411.679688 306.394531 411.679688 307.464844 L 411.679688 328.703125 C 411.679688 329.777344 412.546875 330.644531 413.617188 330.644531 C 414.691406 330.644531 415.558594 329.777344 415.558594 328.703125 Z M 386.898438 321.199219 L 386.898438 314.96875 C 386.898438 313.898438 386.03125 313.03125 384.960938 313.03125 C 383.886719 313.03125 383.019531 313.898438 383.019531 314.96875 L 383.019531 321.199219 C 383.019531 322.273438 383.886719 323.140625 384.960938 323.140625 C 386.03125 323.140625 386.898438 322.273438 386.898438 321.199219 Z M 394.113281 324.363281 L 394.113281 311.804688 C 394.113281 310.734375 393.246094 309.863281 392.175781 309.863281 C 391.101562 309.863281 390.234375 310.734375 390.234375 311.804688 L 390.234375 324.363281 C 390.234375 325.4375 391.101562 326.304688 392.175781 326.304688 C 393.246094 326.304688 394.113281 325.4375 394.113281 324.363281 Z M 394.113281 324.363281 " fill-opacity="1" fill-rule="nonzero"/></g></svg>