<svg xmlns="http://www.w3.org/2000/svg" xmlns:xlink="http://www.w3.org/1999/xlink" viewBox="5 125 350 125" preserveAspectRatio="xMidYMid meet" version="1.0">
  <defs>
    <g/>
    <clipPath id="da1970b982">
      <path d="M 54.046875 226.722656 L 100.546875 226.722656 L 100.546875 246.9375 L 54.046875 246.9375 Z M 54.046875 226.722656 " clip-rule="nonzero"/>
    </clipPath>
  </defs>
  <!-- Shadow text layer - white with opacity -->
  <g fill="#ffffff" fill-opacity="0.15">
    <g transform="translate(21.031878, 224.26601)">
      <g><path d="M 50.359375 -69.03125 C 56.546875 -69.03125 62.164062 -67.585938 67.21875 -64.703125 C 72.269531 -61.828125 76.273438 -57.734375 79.234375 -52.421875 C 82.203125 -47.117188 83.6875 -40.960938 83.6875 -33.953125 C 83.6875 -26.929688 82.203125 -20.769531 79.234375 -15.46875 C 76.273438 -10.164062 72.269531 -6.070312 67.21875 -3.1875 C 62.164062 -0.3125 56.546875 1.125 50.359375 1.125 C 42.429688 1.125 36.128906 -1.253906 31.453125 -6.015625 L 31.453125 24.296875 L 7.640625 24.296875 L 7.640625 -67.90625 L 30.3125 -67.90625 L 30.3125 -61.140625 C 34.738281 -66.398438 41.421875 -69.03125 50.359375 -69.03125 Z M 45.359375 -17.796875 C 49.523438 -17.796875 52.945312 -19.234375 55.625 -22.109375 C 58.300781 -24.992188 59.640625 -28.941406 59.640625 -33.953125 C 59.640625 -38.960938 58.300781 -42.90625 55.625 -45.78125 C 52.945312 -48.664062 49.523438 -50.109375 45.359375 -50.109375 C 41.179688 -50.109375 37.753906 -48.664062 35.078125 -45.78125 C 32.398438 -42.90625 31.0625 -38.960938 31.0625 -33.953125 C 31.0625 -28.941406 32.398438 -24.992188 35.078125 -22.109375 C 37.753906 -19.234375 41.179688 -17.796875 45.359375 -17.796875 Z M 45.359375 -17.796875 "/></g>
    </g>
    <g transform="translate(95.325532, 224.26601)">
      <g><path d="M 30.3125 -59.765625 C 32.738281 -62.847656 35.894531 -65.160156 39.78125 -66.703125 C 43.664062 -68.253906 48.113281 -69.03125 53.125 -69.03125 L 53.125 -47.609375 C 50.945312 -47.859375 49.148438 -47.984375 47.734375 -47.984375 C 42.640625 -47.984375 38.648438 -46.601562 35.765625 -43.84375 C 32.890625 -41.09375 31.453125 -36.875 31.453125 -31.1875 L 31.453125 0 L 7.640625 0 L 7.640625 -67.90625 L 30.3125 -67.90625 Z M 30.3125 -59.765625 "/></g>
    </g>
    <g transform="translate(138.047343, 224.26601)">
      <g><path d="M 77.046875 -33.828125 C 77.046875 -33.660156 76.921875 -31.695312 76.671875 -27.9375 L 27.3125 -27.9375 C 28.3125 -24.425781 30.25 -21.726562 33.125 -19.84375 C 36.007812 -17.96875 39.625 -17.03125 43.96875 -17.03125 C 47.226562 -17.03125 50.046875 -17.488281 52.421875 -18.40625 C 54.804688 -19.332031 57.210938 -20.835938 59.640625 -22.921875 L 72.15625 -9.890625 C 65.5625 -2.546875 55.914062 1.125 43.21875 1.125 C 35.289062 1.125 28.316406 -0.375 22.296875 -3.375 C 16.285156 -6.382812 11.628906 -10.5625 8.328125 -15.90625 C 5.023438 -21.25 3.375 -27.304688 3.375 -34.078125 C 3.375 -40.753906 4.984375 -46.742188 8.203125 -52.046875 C 11.421875 -57.359375 15.867188 -61.515625 21.546875 -64.515625 C 27.222656 -67.523438 33.613281 -69.03125 40.71875 -69.03125 C 47.476562 -69.03125 53.613281 -67.628906 59.125 -64.828125 C 64.644531 -62.035156 69.007812 -57.984375 72.21875 -52.671875 C 75.4375 -47.367188 77.046875 -41.085938 77.046875 -33.828125 Z M 40.84375 -52.109375 C 37.164062 -52.109375 34.09375 -51.066406 31.625 -48.984375 C 29.164062 -46.898438 27.601562 -44.0625 26.9375 -40.46875 L 54.75 -40.46875 C 54.082031 -44.0625 52.515625 -46.898438 50.046875 -48.984375 C 47.585938 -51.066406 44.519531 -52.109375 40.84375 -52.109375 Z M 40.84375 -52.109375 "/></g>
    </g>
    <g transform="translate(205.700884, 224.26601)">
      <g><path d="M 38.46875 -23.796875 L 31.453125 -16.65625 L 31.453125 0 L 7.640625 0 L 7.640625 -92.953125 L 31.453125 -92.953125 L 31.453125 -44.21875 L 55.75 -67.90625 L 83.9375 -67.90625 L 55.75 -38.84375 L 86.3125 0 L 57.5 0 Z M 38.46875 -23.796875 "/></g>
    </g>
    <g transform="translate(278.866974, 224.26601)">
      <g><path d="M 77.046875 -33.828125 C 77.046875 -33.660156 76.921875 -31.695312 76.671875 -27.9375 L 27.3125 -27.9375 C 28.3125 -24.425781 30.25 -21.726562 33.125 -19.84375 C 36.007812 -17.96875 39.625 -17.03125 43.96875 -17.03125 C 47.226562 -17.03125 50.046875 -17.488281 52.421875 -18.40625 C 54.804688 -19.332031 57.210938 -20.835938 59.640625 -22.921875 L 72.15625 -9.890625 C 65.5625 -2.546875 55.914062 1.125 43.21875 1.125 C 35.289062 1.125 28.316406 -0.375 22.296875 -3.375 C 16.285156 -6.382812 11.628906 -10.5625 8.328125 -15.90625 C 5.023438 -21.25 3.375 -27.304688 3.375 -34.078125 C 3.375 -40.753906 4.984375 -46.742188 8.203125 -52.046875 C 11.421875 -57.359375 15.867188 -61.515625 21.546875 -64.515625 C 27.222656 -67.523438 33.613281 -69.03125 40.71875 -69.03125 C 47.476562 -69.03125 53.613281 -67.628906 59.125 -64.828125 C 64.644531 -62.035156 69.007812 -57.984375 72.21875 -52.671875 C 75.4375 -47.367188 77.046875 -41.085938 77.046875 -33.828125 Z M 40.84375 -52.109375 C 37.164062 -52.109375 34.09375 -51.066406 31.625 -48.984375 C 29.164062 -46.898438 27.601562 -44.0625 26.9375 -40.46875 L 54.75 -40.46875 C 54.082031 -44.0625 52.515625 -46.898438 50.046875 -48.984375 C 47.585938 -51.066406 44.519531 -52.109375 40.84375 -52.109375 Z M 40.84375 -52.109375 "/></g>
    </g>
  </g>
  <!-- Main white text -->
  <g fill="#ffffff" fill-opacity="1">
    <g transform="translate(18.355027, 221.855765)">
      <g><path d="M 50.359375 -69.03125 C 56.546875 -69.03125 62.164062 -67.585938 67.21875 -64.703125 C 72.269531 -61.828125 76.273438 -57.734375 79.234375 -52.421875 C 82.203125 -47.117188 83.6875 -40.960938 83.6875 -33.953125 C 83.6875 -26.929688 82.203125 -20.769531 79.234375 -15.46875 C 76.273438 -10.164062 72.269531 -6.070312 67.21875 -3.1875 C 62.164062 -0.3125 56.546875 1.125 50.359375 1.125 C 42.429688 1.125 36.128906 -1.253906 31.453125 -6.015625 L 31.453125 24.296875 L 7.640625 24.296875 L 7.640625 -67.90625 L 30.3125 -67.90625 L 30.3125 -61.140625 C 34.738281 -66.398438 41.421875 -69.03125 50.359375 -69.03125 Z M 45.359375 -17.796875 C 49.523438 -17.796875 52.945312 -19.234375 55.625 -22.109375 C 58.300781 -24.992188 59.640625 -28.941406 59.640625 -33.953125 C 59.640625 -38.960938 58.300781 -42.90625 55.625 -45.78125 C 52.945312 -48.664062 49.523438 -50.109375 45.359375 -50.109375 C 41.179688 -50.109375 37.753906 -48.664062 35.078125 -45.78125 C 32.398438 -42.90625 31.0625 -38.960938 31.0625 -33.953125 C 31.0625 -28.941406 32.398438 -24.992188 35.078125 -22.109375 C 37.753906 -19.234375 41.179688 -17.796875 45.359375 -17.796875 Z M 45.359375 -17.796875 "/></g>
    </g>
    <g transform="translate(92.648682, 221.855765)">
      <g><path d="M 30.3125 -59.765625 C 32.738281 -62.847656 35.894531 -65.160156 39.78125 -66.703125 C 43.664062 -68.253906 48.113281 -69.03125 53.125 -69.03125 L 53.125 -47.609375 C 50.945312 -47.859375 49.148438 -47.984375 47.734375 -47.984375 C 42.640625 -47.984375 38.648438 -46.601562 35.765625 -43.84375 C 32.890625 -41.09375 31.453125 -36.875 31.453125 -31.1875 L 31.453125 0 L 7.640625 0 L 7.640625 -67.90625 L 30.3125 -67.90625 Z M 30.3125 -59.765625 "/></g>
    </g>
    <g transform="translate(135.370492, 221.855765)">
      <g><path d="M 77.046875 -33.828125 C 77.046875 -33.660156 76.921875 -31.695312 76.671875 -27.9375 L 27.3125 -27.9375 C 28.3125 -24.425781 30.25 -21.726562 33.125 -19.84375 C 36.007812 -17.96875 39.625 -17.03125 43.96875 -17.03125 C 47.226562 -17.03125 50.046875 -17.488281 52.421875 -18.40625 C 54.804688 -19.332031 57.210938 -20.835938 59.640625 -22.921875 L 72.15625 -9.890625 C 65.5625 -2.546875 55.914062 1.125 43.21875 1.125 C 35.289062 1.125 28.316406 -0.375 22.296875 -3.375 C 16.285156 -6.382812 11.628906 -10.5625 8.328125 -15.90625 C 5.023438 -21.25 3.375 -27.304688 3.375 -34.078125 C 3.375 -40.753906 4.984375 -46.742188 8.203125 -52.046875 C 11.421875 -57.359375 15.867188 -61.515625 21.546875 -64.515625 C 27.222656 -67.523438 33.613281 -69.03125 40.71875 -69.03125 C 47.476562 -69.03125 53.613281 -67.628906 59.125 -64.828125 C 64.644531 -62.035156 69.007812 -57.984375 72.21875 -52.671875 C 75.4375 -47.367188 77.046875 -41.085938 77.046875 -33.828125 Z M 40.84375 -52.109375 C 37.164062 -52.109375 34.09375 -51.066406 31.625 -48.984375 C 29.164062 -46.898438 27.601562 -44.0625 26.9375 -40.46875 L 54.75 -40.46875 C 54.082031 -44.0625 52.515625 -46.898438 50.046875 -48.984375 C 47.585938 -51.066406 44.519531 -52.109375 40.84375 -52.109375 Z M 40.84375 -52.109375 "/></g>
    </g>
    <g transform="translate(203.024033, 221.855765)">
      <g><path d="M 38.46875 -23.796875 L 31.453125 -16.65625 L 31.453125 0 L 7.640625 0 L 7.640625 -92.953125 L 31.453125 -92.953125 L 31.453125 -44.21875 L 55.75 -67.90625 L 83.9375 -67.90625 L 55.75 -38.84375 L 86.3125 0 L 57.5 0 Z M 38.46875 -23.796875 "/></g>
    </g>
    <g transform="translate(276.190124, 221.855765)">
      <g><path d="M 77.046875 -33.828125 C 77.046875 -33.660156 76.921875 -31.695312 76.671875 -27.9375 L 27.3125 -27.9375 C 28.3125 -24.425781 30.25 -21.726562 33.125 -19.84375 C 36.007812 -17.96875 39.625 -17.03125 43.96875 -17.03125 C 47.226562 -17.03125 50.046875 -17.488281 52.421875 -18.40625 C 54.804688 -19.332031 57.210938 -20.835938 59.640625 -22.921875 L 72.15625 -9.890625 C 65.5625 -2.546875 55.914062 1.125 43.21875 1.125 C 35.289062 1.125 28.316406 -0.375 22.296875 -3.375 C 16.285156 -6.382812 11.628906 -10.5625 8.328125 -15.90625 C 5.023438 -21.25 3.375 -27.304688 3.375 -34.078125 C 3.375 -40.753906 4.984375 -46.742188 8.203125 -52.046875 C 11.421875 -57.359375 15.867188 -61.515625 21.546875 -64.515625 C 27.222656 -67.523438 33.613281 -69.03125 40.71875 -69.03125 C 47.476562 -69.03125 53.613281 -67.628906 59.125 -64.828125 C 64.644531 -62.035156 69.007812 -57.984375 72.21875 -52.671875 C 75.4375 -47.367188 77.046875 -41.085938 77.046875 -33.828125 Z M 40.84375 -52.109375 C 37.164062 -52.109375 34.09375 -51.066406 31.625 -48.984375 C 29.164062 -46.898438 27.601562 -44.0625 26.9375 -40.46875 L 54.75 -40.46875 C 54.082031 -44.0625 52.515625 -46.898438 50.046875 -48.984375 C 47.585938 -51.066406 44.519531 -52.109375 40.84375 -52.109375 Z M 40.84375 -52.109375 "/></g>
    </g>
  </g>
  <!-- Gold waveform -->
  <g clip-path="url(#da1970b982)">
    <path fill="#d9981e" d="M 43.386719 237.464844 C 43.09375 237.464844 42.851562 237.222656 42.851562 236.925781 L 42.851562 236.363281 C 42.851562 236.066406 43.09375 235.824219 43.386719 235.824219 C 43.683594 235.824219 43.925781 236.066406 43.925781 236.363281 L 43.925781 236.925781 C 43.925781 237.222656 43.683594 237.464844 43.386719 237.464844 Z M 45.917969 237.773438 L 45.917969 235.515625 C 45.917969 235.21875 45.679688 234.980469 45.382812 234.980469 C 45.085938 234.980469 44.847656 235.21875 44.847656 235.515625 L 44.847656 237.773438 C 44.847656 238.070312 45.085938 238.3125 45.382812 238.3125 C 45.679688 238.3125 45.917969 238.070312 45.917969 237.773438 Z M 47.914062 239.652344 L 47.914062 233.636719 C 47.914062 233.339844 47.671875 233.101562 47.378906 233.101562 C 47.082031 233.101562 46.839844 233.339844 46.839844 233.636719 L 46.839844 239.652344 C 46.839844 239.949219 47.082031 240.1875 47.378906 240.1875 C 47.671875 240.1875 47.914062 239.949219 47.914062 239.652344 Z M 49.910156 237.773438 L 49.910156 235.515625 C 49.910156 235.21875 49.667969 234.980469 49.371094 234.980469 C 49.074219 234.980469 48.835938 235.21875 48.835938 235.515625 L 48.835938 237.773438 C 48.835938 238.070312 49.074219 238.3125 49.371094 238.3125 C 49.667969 238.3125 49.910156 238.070312 49.910156 237.773438 Z M 51.902344 237.246094 L 51.902344 236.042969 C 51.902344 235.746094 51.664062 235.507812 51.367188 235.507812 C 51.070312 235.507812 50.832031 235.746094 50.832031 236.042969 L 50.832031 237.246094 C 50.832031 237.542969 51.070312 237.785156 51.367188 237.785156 C 51.664062 237.785156 51.902344 237.542969 51.902344 237.246094 Z M 53.898438 238.453125 L 53.898438 234.839844 C 53.898438 234.542969 53.65625 234.300781 53.359375 234.300781 C 53.0625 234.300781 52.824219 234.542969 52.824219 234.839844 L 52.824219 238.453125 C 52.824219 238.75 53.0625 238.988281 53.359375 238.988281 C 53.65625 238.988281 53.898438 238.75 53.898438 238.453125 Z M 55.890625 240.457031 L 55.890625 232.832031 C 55.890625 232.535156 55.652344 232.296875 55.355469 232.296875 C 55.058594 232.296875 54.820312 232.535156 54.820312 232.832031 L 54.820312 240.457031 C 54.820312 240.753906 55.058594 240.992188 55.355469 240.992188 C 55.652344 240.992188 55.890625 240.753906 55.890625 240.457031 Z M 57.886719 242.914062 L 57.886719 230.378906 C 57.886719 230.082031 57.648438 229.839844 57.351562 229.839844 C 57.054688 229.839844 56.816406 230.082031 56.816406 230.378906 L 56.816406 242.914062 C 56.816406 243.210938 57.054688 243.449219 57.351562 243.449219 C 57.648438 243.449219 57.886719 243.210938 57.886719 242.914062 Z M 59.882812 240.273438 L 59.882812 233.015625 C 59.882812 232.71875 59.640625 232.480469 59.34375 232.480469 C 59.046875 232.480469 58.808594 232.71875 58.808594 233.015625 L 58.808594 240.273438 C 58.808594 240.570312 59.046875 240.808594 59.34375 240.808594 C 59.640625 240.808594 59.882812 240.570312 59.882812 240.273438 Z M 61.875 238.453125 L 61.875 234.839844 C 61.875 234.542969 61.636719 234.300781 61.339844 234.300781 C 61.042969 234.300781 60.804688 234.542969 60.804688 234.839844 L 60.804688 238.453125 C 60.804688 238.75 61.042969 238.988281 61.339844 238.988281 C 61.636719 238.988281 61.875 238.75 61.875 238.453125 Z M 63.871094 237.773438 L 63.871094 235.515625 C 63.871094 235.21875 63.632812 234.980469 63.335938 234.980469 C 63.039062 234.980469 62.796875 235.21875 62.796875 235.515625 L 62.796875 237.773438 C 62.796875 238.070312 63.039062 238.3125 63.335938 238.3125 C 63.632812 238.3125 63.871094 238.070312 63.871094 237.773438 Z M 65.863281 237.050781 L 65.863281 236.238281 C 65.863281 235.945312 65.625 235.703125 65.328125 235.703125 C 65.03125 235.703125 64.792969 235.945312 64.792969 236.238281 L 64.792969 237.050781 C 64.792969 237.347656 65.03125 237.585938 65.328125 237.585938 C 65.625 237.585938 65.863281 237.347656 65.863281 237.050781 Z M 67.859375 238.238281 L 67.859375 235.050781 C 67.859375 234.753906 67.621094 234.511719 67.324219 234.511719 C 67.027344 234.511719 66.789062 234.753906 66.789062 235.050781 L 66.789062 238.238281 C 66.789062 238.535156 67.027344 238.777344 67.324219 238.777344 C 67.621094 238.777344 67.859375 238.535156 67.859375 238.238281 Z M 69.855469 237.578125 L 69.855469 235.714844 C 69.855469 235.417969 69.613281 235.175781 69.320312 235.175781 C 69.023438 235.175781 68.78125 235.417969 68.78125 235.714844 L 68.78125 237.578125 C 68.78125 237.871094 69.023438 238.113281 69.320312 238.113281 C 69.613281 238.113281 69.855469 237.871094 69.855469 237.578125 Z M 71.847656 239.890625 L 71.847656 233.398438 C 71.847656 233.101562 71.609375 232.863281 71.3125 232.863281 C 71.015625 232.863281 70.777344 233.101562 70.777344 233.398438 L 70.777344 239.890625 C 70.777344 240.1875 71.015625 240.429688 71.3125 240.429688 C 71.609375 240.429688 71.847656 240.1875 71.847656 239.890625 Z M 73.84375 242.714844 L 73.84375 230.574219 C 73.84375 230.277344 73.605469 230.039062 73.308594 230.039062 C 73.011719 230.039062 72.769531 230.277344 72.769531 230.574219 L 72.769531 242.714844 C 72.769531 243.011719 73.011719 243.25 73.308594 243.25 C 73.605469 243.25 73.84375 243.011719 73.84375 242.714844 Z M 75.839844 246.046875 L 75.839844 227.242188 C 75.839844 226.945312 75.597656 226.707031 75.300781 226.707031 C 75.007812 226.707031 74.765625 226.945312 74.765625 227.242188 L 74.765625 246.046875 C 74.765625 246.34375 75.007812 246.582031 75.300781 246.582031 C 75.597656 246.582031 75.839844 246.34375 75.839844 246.046875 Z M 77.832031 242.714844 L 77.832031 230.574219 C 77.832031 230.277344 77.59375 230.039062 77.296875 230.039062 C 77 230.039062 76.757812 230.277344 76.757812 230.574219 L 76.757812 242.714844 C 76.757812 243.011719 77 243.25 77.296875 243.25 C 77.59375 243.25 77.832031 243.011719 77.832031 242.714844 Z M 79.828125 239.890625 L 79.828125 233.398438 C 79.828125 233.101562 79.585938 232.863281 79.292969 232.863281 C 78.996094 232.863281 78.753906 233.101562 78.753906 233.398438 L 78.753906 239.890625 C 78.753906 240.1875 78.996094 240.429688 79.292969 240.429688 C 79.585938 240.429688 79.828125 240.1875 79.828125 239.890625 Z M 81.824219 237.632812 L 81.824219 235.65625 C 81.824219 235.359375 81.582031 235.121094 81.285156 235.121094 C 80.988281 235.121094 80.75 235.359375 80.75 235.65625 L 80.75 237.632812 C 80.75 237.929688 80.988281 238.167969 81.285156 238.167969 C 81.582031 238.167969 81.824219 237.929688 81.824219 237.632812 Z M 83.816406 238.324219 L 83.816406 234.964844 C 83.816406 234.667969 83.578125 234.429688 83.28125 234.429688 C 82.984375 234.429688 82.746094 234.667969 82.746094 234.964844 L 82.746094 238.324219 C 82.746094 238.621094 82.984375 238.859375 83.28125 238.859375 C 83.578125 238.859375 83.816406 238.621094 83.816406 238.324219 Z M 85.8125 239.890625 L 85.8125 233.398438 C 85.8125 233.101562 85.570312 232.863281 85.273438 232.863281 C 84.980469 232.863281 84.738281 233.101562 84.738281 233.398438 L 84.738281 239.890625 C 84.738281 240.1875 84.980469 240.429688 85.273438 240.429688 C 85.570312 240.429688 85.8125 240.1875 85.8125 239.890625 Z M 87.804688 242.191406 L 87.804688 231.097656 C 87.804688 230.800781 87.566406 230.5625 87.269531 230.5625 C 86.972656 230.5625 86.734375 230.800781 86.734375 231.097656 L 86.734375 242.191406 C 86.734375 242.488281 86.972656 242.730469 87.269531 242.730469 C 87.566406 242.730469 87.804688 242.488281 87.804688 242.191406 Z M 89.800781 239.890625 L 89.800781 233.398438 C 89.800781 233.101562 89.5625 232.863281 89.265625 232.863281 C 88.96875 232.863281 88.730469 233.101562 88.730469 233.398438 L 88.730469 239.890625 C 88.730469 240.1875 88.96875 240.429688 89.265625 240.429688 C 89.558594 240.429688 89.800781 240.1875 89.800781 239.890625 Z M 91.796875 238.324219 L 91.796875 234.964844 C 91.796875 234.667969 91.554688 234.429688 91.257812 234.429688 C 90.960938 234.429688 90.722656 234.667969 90.722656 234.964844 L 90.722656 238.324219 C 90.722656 238.621094 90.960938 238.859375 91.257812 238.859375 C 91.554688 238.859375 91.796875 238.621094 91.796875 238.324219 Z M 93.789062 237.308594 L 93.789062 235.980469 C 93.789062 235.683594 93.550781 235.445312 93.253906 235.445312 C 92.957031 235.445312 92.71875 235.683594 92.71875 235.980469 L 92.71875 237.308594 C 92.71875 237.605469 92.957031 237.84375 93.253906 237.84375 C 93.550781 237.84375 93.789062 237.605469 93.789062 237.308594 Z M 95.785156 238 L 95.785156 235.289062 C 95.785156 234.992188 95.546875 234.753906 95.25 234.753906 C 94.953125 234.753906 94.710938 234.992188 94.710938 235.289062 L 94.710938 238 C 94.710938 238.296875 94.953125 238.535156 95.25 238.535156 C 95.542969 238.535156 95.785156 238.296875 95.785156 238 Z M 97.777344 237.507812 L 97.777344 235.785156 C 97.777344 235.488281 97.539062 235.246094 97.242188 235.246094 C 96.945312 235.246094 96.707031 235.488281 96.707031 235.785156 L 96.707031 237.507812 C 96.707031 237.800781 96.945312 238.042969 97.242188 238.042969 C 97.539062 238.042969 97.777344 237.800781 97.777344 237.507812 Z M 99.773438 239.042969 L 99.773438 234.246094 C 99.773438 233.949219 99.535156 233.707031 99.238281 233.707031 C 98.941406 233.707031 98.703125 233.949219 98.703125 234.246094 L 98.703125 239.042969 C 99.773438 239.339844 98.941406 239.582031 99.238281 239.582031 C 99.535156 239.582031 99.773438 239.339844 99.773438 239.042969 Z M 101.769531 241.246094 L 101.769531 232.042969 C 101.769531 231.746094 101.53125 231.507812 101.234375 231.507812 C 100.9375 231.507812 100.695312 231.746094 100.695312 232.042969 L 100.695312 241.246094 C 100.695312 241.542969 100.9375 241.785156 101.234375 241.785156 C 101.527344 241.785156 101.769531 241.542969 101.769531 241.246094 Z M 103.761719 244.351562 L 103.761719 228.9375 C 103.761719 228.640625 103.523438 228.402344 103.226562 228.402344 C 102.929688 228.402344 102.691406 228.640625 102.691406 228.9375 L 102.691406 244.351562 C 102.691406 244.648438 102.929688 244.890625 103.226562 244.890625 C 103.523438 244.890625 103.761719 244.648438 103.761719 244.351562 Z M 105.757812 241.007812 L 105.757812 232.28125 C 105.757812 231.988281 105.519531 231.746094 105.222656 231.746094 C 104.925781 231.746094 104.683594 231.988281 104.683594 232.28125 L 104.683594 241.007812 C 104.683594 241.304688 104.925781 241.542969 105.222656 241.542969 C 105.519531 241.542969 105.757812 241.304688 105.757812 241.007812 Z M 125.632812 241.007812 L 125.632812 232.28125 C 125.632812 231.988281 125.390625 231.746094 125.09375 231.746094 C 124.796875 231.746094 124.558594 231.988281 124.558594 232.28125 L 124.558594 241.007812 C 124.558594 241.304688 124.796875 241.542969 125.09375 241.542969 C 125.390625 241.542969 125.632812 241.304688 125.632812 241.007812 Z M 107.753906 238.269531 L 107.753906 235.023438 C 107.753906 234.726562 107.511719 234.484375 107.21875 234.484375 C 106.921875 234.484375 106.679688 234.726562 106.679688 235.023438 L 106.679688 238.269531 C 106.679688 238.566406 106.921875 238.804688 107.21875 238.804688 C 107.511719 238.804688 107.753906 238.566406 107.753906 238.269531 Z M 121.679688 238.269531 L 121.679688 235.023438 C 121.679688 234.726562 121.4375 234.484375 121.140625 234.484375 C 120.84375 234.484375 120.605469 234.726562 120.605469 235.023438 L 120.605469 238.269531 C 120.605469 238.566406 120.84375 238.804688 121.140625 238.804688 C 121.4375 238.804688 121.679688 238.566406 121.679688 238.269531 Z M 109.746094 237.238281 L 109.746094 236.050781 C 109.746094 235.753906 109.507812 235.515625 109.210938 235.515625 C 108.914062 235.515625 108.675781 235.753906 108.675781 236.050781 L 108.675781 237.238281 C 108.675781 237.535156 108.914062 237.773438 109.210938 237.773438 C 109.507812 237.773438 109.746094 237.535156 109.746094 237.238281 Z M 111.742188 237.746094 L 111.742188 235.542969 C 111.742188 235.246094 111.5 235.007812 111.207031 235.007812 C 110.910156 235.007812 110.667969 235.246094 110.667969 235.542969 L 110.667969 237.746094 C 110.667969 238.042969 110.910156 238.28125 111.207031 238.28125 C 111.5 238.28125 111.742188 238.042969 111.742188 237.746094 Z M 119.703125 237.746094 L 119.703125 235.542969 C 119.703125 235.246094 119.460938 235.007812 119.164062 235.007812 C 118.871094 235.007812 118.628906 235.246094 118.628906 235.542969 L 118.628906 237.746094 C 118.628906 238.042969 118.871094 238.28125 119.164062 238.28125 C 119.460938 238.28125 119.703125 238.042969 119.703125 237.746094 Z M 113.738281 239.582031 L 113.738281 233.707031 C 113.738281 233.414062 113.496094 233.171875 113.199219 233.171875 C 112.902344 233.171875 112.664062 233.414062 112.664062 233.707031 L 112.664062 239.582031 C 112.664062 239.878906 112.902344 240.117188 113.199219 240.117188 C 113.496094 240.117188 113.738281 239.878906 113.738281 239.582031 Z M 127.605469 239.582031 L 127.605469 233.707031 C 127.605469 233.414062 127.367188 233.171875 127.070312 233.171875 C 126.773438 233.171875 126.535156 233.414062 126.535156 233.707031 L 126.535156 239.582031 C 126.535156 239.878906 126.773438 240.117188 127.070312 240.117188 C 127.367188 240.117188 127.605469 239.878906 127.605469 239.582031 Z M 123.65625 239.582031 L 123.65625 233.707031 C 123.65625 233.414062 123.414062 233.171875 123.117188 233.171875 C 122.820312 233.171875 122.582031 233.414062 122.582031 233.707031 L 122.582031 239.582031 C 122.582031 239.878906 122.820312 240.117188 123.117188 240.117188 C 123.414062 240.117188 123.65625 239.878906 123.65625 239.582031 Z M 115.730469 237.507812 L 115.730469 235.785156 C 115.730469 235.488281 115.492188 235.246094 115.195312 235.246094 C 114.898438 235.246094 114.65625 235.488281 114.65625 235.785156 L 114.65625 237.507812 C 114.65625 237.800781 114.898438 238.042969 115.195312 238.042969 C 115.492188 238.042969 115.730469 237.800781 115.730469 237.507812 Z M 117.726562 238.382812 L 117.726562 234.910156 C 117.726562 234.613281 117.484375 234.371094 117.1875 234.371094 C 116.894531 234.371094 116.652344 234.613281 116.652344 234.910156 L 116.652344 238.382812 C 116.652344 238.675781 116.894531 238.917969 117.1875 238.917969 C 117.484375 238.917969 117.726562 238.675781 117.726562 238.382812 Z M 117.726562 238.382812 " fill-opacity="1" fill-rule="nonzero"/>
  </g>
</svg>
