<svg xmlns="http://www.w3.org/2000/svg" viewBox="0 0 360 95" preserveAspectRatio="xMidYMid meet">
  <!-- Cropped version with minimal empty space -->
  <!-- Original content positioned around y=130-250, cropped to show just the text -->
  
  <!-- Shadow text layer -->
  <g fill="#ffffff" fill-opacity="0.15">
    <g transform="translate(21, 93)">
      <path d="M 50.359375 -69.03125 C 56.546875 -69.03125 62.164062 -67.585938 67.21875 -64.703125 C 72.269531 -61.828125 76.273438 -57.734375 79.234375 -52.421875 C 82.203125 -47.117188 83.6875 -40.960938 83.6875 -33.953125 C 83.6875 -26.929688 82.203125 -20.769531 79.234375 -15.46875 C 76.273438 -10.164062 72.269531 -6.070312 67.21875 -3.1875 C 62.164062 -0.3125 56.546875 1.125 50.359375 1.125 C 42.429688 1.125 36.128906 -1.253906 31.453125 -6.015625 L 31.453125 24.296875 L 7.640625 24.296875 L 7.640625 -67.90625 L 30.3125 -67.90625 L 30.3125 -61.140625 C 34.738281 -66.398438 41.421875 -69.03125 50.359375 -69.03125 Z M 45.359375 -17.796875 C 49.523438 -17.796875 52.945312 -19.234375 55.625 -22.109375 C 58.300781 -24.992188 59.640625 -28.941406 59.640625 -33.953125 C 59.640625 -38.960938 58.300781 -42.90625 55.625 -45.78125 C 52.945312 -48.664062 49.523438 -50.109375 45.359375 -50.109375 C 41.179688 -50.109375 37.753906 -48.664062 35.078125 -45.78125 C 32.398438 -42.90625 31.0625 -38.960938 31.0625 -33.953125 C 31.0625 -28.941406 32.398438 -24.992188 35.078125 -22.109375 C 37.753906 -19.234375 41.179688 -17.796875 45.359375 -17.796875 Z"/>
    </g>
    <g transform="translate(95, 93)">
      <path d="M 30.3125 -59.765625 C 32.738281 -62.847656 35.894531 -65.160156 39.78125 -66.703125 C 43.664062 -68.253906 48.113281 -69.03125 53.125 -69.03125 L 53.125 -47.609375 C 50.945312 -47.859375 49.148438 -47.984375 47.734375 -47.984375 C 42.640625 -47.984375 38.648438 -46.601562 35.765625 -43.84375 C 32.890625 -41.09375 31.453125 -36.875 31.453125 -31.1875 L 31.453125 0 L 7.640625 0 L 7.640625 -67.90625 L 30.3125 -67.90625 Z"/>
    </g>
    <g transform="translate(138, 93)">
      <path d="M 77.046875 -33.828125 C 77.046875 -33.660156 76.921875 -31.695312 76.671875 -27.9375 L 27.3125 -27.9375 C 28.3125 -24.425781 30.25 -21.726562 33.125 -19.84375 C 36.007812 -17.96875 39.625 -17.03125 43.96875 -17.03125 C 47.226562 -17.03125 50.046875 -17.488281 52.421875 -18.40625 C 54.804688 -19.332031 57.210938 -20.835938 59.640625 -22.921875 L 72.15625 -9.890625 C 65.5625 -2.546875 55.914062 1.125 43.21875 1.125 C 35.289062 1.125 28.316406 -0.375 22.296875 -3.375 C 16.285156 -6.382812 11.628906 -10.5625 8.328125 -15.90625 C 5.023438 -21.25 3.375 -27.304688 3.375 -34.078125 C 3.375 -40.753906 4.984375 -46.742188 8.203125 -52.046875 C 11.421875 -57.359375 15.867188 -61.515625 21.546875 -64.515625 C 27.222656 -67.523438 33.613281 -69.03125 40.71875 -69.03125 C 47.476562 -69.03125 53.613281 -67.628906 59.125 -64.828125 C 64.644531 -62.035156 69.007812 -57.984375 72.21875 -52.671875 C 75.4375 -47.367188 77.046875 -41.085938 77.046875 -33.828125 Z M 40.84375 -52.109375 C 37.164062 -52.109375 34.09375 -51.066406 31.625 -48.984375 C 29.164062 -46.898438 27.601562 -44.0625 26.9375 -40.46875 L 54.75 -40.46875 C 54.082031 -44.0625 52.515625 -46.898438 50.046875 -48.984375 C 47.585938 -51.066406 44.519531 -52.109375 40.84375 -52.109375 Z"/>
    </g>
    <g transform="translate(206, 93)">
      <path d="M 38.46875 -23.796875 L 31.453125 -16.65625 L 31.453125 0 L 7.640625 0 L 7.640625 -92.953125 L 31.453125 -92.953125 L 31.453125 -44.21875 L 55.75 -67.90625 L 83.9375 -67.90625 L 55.75 -38.84375 L 86.3125 0 L 57.5 0 Z"/>
    </g>
    <g transform="translate(279, 93)">
      <path d="M 77.046875 -33.828125 C 77.046875 -33.660156 76.921875 -31.695312 76.671875 -27.9375 L 27.3125 -27.9375 C 28.3125 -24.425781 30.25 -21.726562 33.125 -19.84375 C 36.007812 -17.96875 39.625 -17.03125 43.96875 -17.03125 C 47.226562 -17.03125 50.046875 -17.488281 52.421875 -18.40625 C 54.804688 -19.332031 57.210938 -20.835938 59.640625 -22.921875 L 72.15625 -9.890625 C 65.5625 -2.546875 55.914062 1.125 43.21875 1.125 C 35.289062 1.125 28.316406 -0.375 22.296875 -3.375 C 16.285156 -6.382812 11.628906 -10.5625 8.328125 -15.90625 C 5.023438 -21.25 3.375 -27.304688 3.375 -34.078125 C 3.375 -40.753906 4.984375 -46.742188 8.203125 -52.046875 C 11.421875 -57.359375 15.867188 -61.515625 21.546875 -64.515625 C 27.222656 -67.523438 33.613281 -69.03125 40.71875 -69.03125 C 47.476562 -69.03125 53.613281 -67.628906 59.125 -64.828125 C 64.644531 -62.035156 69.007812 -57.984375 72.21875 -52.671875 C 75.4375 -47.367188 77.046875 -41.085938 77.046875 -33.828125 Z M 40.84375 -52.109375 C 37.164062 -52.109375 34.09375 -51.066406 31.625 -48.984375 C 29.164062 -46.898438 27.601562 -44.0625 26.9375 -40.46875 L 54.75 -40.46875 C 54.082031 -44.0625 52.515625 -46.898438 50.046875 -48.984375 C 47.585938 -51.066406 44.519531 -52.109375 40.84375 -52.109375 Z"/>
    </g>
  </g>
  
  <!-- Main white text -->
  <g fill="#ffffff" fill-opacity="1">
    <g transform="translate(18, 91)">
      <path d="M 50.359375 -69.03125 C 56.546875 -69.03125 62.164062 -67.585938 67.21875 -64.703125 C 72.269531 -61.828125 76.273438 -57.734375 79.234375 -52.421875 C 82.203125 -47.117188 83.6875 -40.960938 83.6875 -33.953125 C 83.6875 -26.929688 82.203125 -20.769531 79.234375 -15.46875 C 76.273438 -10.164062 72.269531 -6.070312 67.21875 -3.1875 C 62.164062 -0.3125 56.546875 1.125 50.359375 1.125 C 42.429688 1.125 36.128906 -1.253906 31.453125 -6.015625 L 31.453125 24.296875 L 7.640625 24.296875 L 7.640625 -67.90625 L 30.3125 -67.90625 L 30.3125 -61.140625 C 34.738281 -66.398438 41.421875 -69.03125 50.359375 -69.03125 Z M 45.359375 -17.796875 C 49.523438 -17.796875 52.945312 -19.234375 55.625 -22.109375 C 58.300781 -24.992188 59.640625 -28.941406 59.640625 -33.953125 C 59.640625 -38.960938 58.300781 -42.90625 55.625 -45.78125 C 52.945312 -48.664062 49.523438 -50.109375 45.359375 -50.109375 C 41.179688 -50.109375 37.753906 -48.664062 35.078125 -45.78125 C 32.398438 -42.90625 31.0625 -38.960938 31.0625 -33.953125 C 31.0625 -28.941406 32.398438 -24.992188 35.078125 -22.109375 C 37.753906 -19.234375 41.179688 -17.796875 45.359375 -17.796875 Z"/>
    </g>
    <g transform="translate(93, 91)">
      <path d="M 30.3125 -59.765625 C 32.738281 -62.847656 35.894531 -65.160156 39.78125 -66.703125 C 43.664062 -68.253906 48.113281 -69.03125 53.125 -69.03125 L 53.125 -47.609375 C 50.945312 -47.859375 49.148438 -47.984375 47.734375 -47.984375 C 42.640625 -47.984375 38.648438 -46.601562 35.765625 -43.84375 C 32.890625 -41.09375 31.453125 -36.875 31.453125 -31.1875 L 31.453125 0 L 7.640625 0 L 7.640625 -67.90625 L 30.3125 -67.90625 Z"/>
    </g>
    <g transform="translate(135, 91)">
      <path d="M 77.046875 -33.828125 C 77.046875 -33.660156 76.921875 -31.695312 76.671875 -27.9375 L 27.3125 -27.9375 C 28.3125 -24.425781 30.25 -21.726562 33.125 -19.84375 C 36.007812 -17.96875 39.625 -17.03125 43.96875 -17.03125 C 47.226562 -17.03125 50.046875 -17.488281 52.421875 -18.40625 C 54.804688 -19.332031 57.210938 -20.835938 59.640625 -22.921875 L 72.15625 -9.890625 C 65.5625 -2.546875 55.914062 1.125 43.21875 1.125 C 35.289062 1.125 28.316406 -0.375 22.296875 -3.375 C 16.285156 -6.382812 11.628906 -10.5625 8.328125 -15.90625 C 5.023438 -21.25 3.375 -27.304688 3.375 -34.078125 C 3.375 -40.753906 4.984375 -46.742188 8.203125 -52.046875 C 11.421875 -57.359375 15.867188 -61.515625 21.546875 -64.515625 C 27.222656 -67.523438 33.613281 -69.03125 40.71875 -69.03125 C 47.476562 -69.03125 53.613281 -67.628906 59.125 -64.828125 C 64.644531 -62.035156 69.007812 -57.984375 72.21875 -52.671875 C 75.4375 -47.367188 77.046875 -41.085938 77.046875 -33.828125 Z M 40.84375 -52.109375 C 37.164062 -52.109375 34.09375 -51.066406 31.625 -48.984375 C 29.164062 -46.898438 27.601562 -44.0625 26.9375 -40.46875 L 54.75 -40.46875 C 54.082031 -44.0625 52.515625 -46.898438 50.046875 -48.984375 C 47.585938 -51.066406 44.519531 -52.109375 40.84375 -52.109375 Z"/>
    </g>
    <g transform="translate(203, 91)">
      <path d="M 38.46875 -23.796875 L 31.453125 -16.65625 L 31.453125 0 L 7.640625 0 L 7.640625 -92.953125 L 31.453125 -92.953125 L 31.453125 -44.21875 L 55.75 -67.90625 L 83.9375 -67.90625 L 55.75 -38.84375 L 86.3125 0 L 57.5 0 Z"/>
    </g>
    <g transform="translate(276, 91)">
      <path d="M 77.046875 -33.828125 C 77.046875 -33.660156 76.921875 -31.695312 76.671875 -27.9375 L 27.3125 -27.9375 C 28.3125 -24.425781 30.25 -21.726562 33.125 -19.84375 C 36.007812 -17.96875 39.625 -17.03125 43.96875 -17.03125 C 47.226562 -17.03125 50.046875 -17.488281 52.421875 -18.40625 C 54.804688 -19.332031 57.210938 -20.835938 59.640625 -22.921875 L 72.15625 -9.890625 C 65.5625 -2.546875 55.914062 1.125 43.21875 1.125 C 35.289062 1.125 28.316406 -0.375 22.296875 -3.375 C 16.285156 -6.382812 11.628906 -10.5625 8.328125 -15.90625 C 5.023438 -21.25 3.375 -27.304688 3.375 -34.078125 C 3.375 -40.753906 4.984375 -46.742188 8.203125 -52.046875 C 11.421875 -57.359375 15.867188 -61.515625 21.546875 -64.515625 C 27.222656 -67.523438 33.613281 -69.03125 40.71875 -69.03125 C 47.476562 -69.03125 53.613281 -67.628906 59.125 -64.828125 C 64.644531 -62.035156 69.007812 -57.984375 72.21875 -52.671875 C 75.4375 -47.367188 77.046875 -41.085938 77.046875 -33.828125 Z M 40.84375 -52.109375 C 37.164062 -52.109375 34.09375 -51.066406 31.625 -48.984375 C 29.164062 -46.898438 27.601562 -44.0625 26.9375 -40.46875 L 54.75 -40.46875 C 54.082031 -44.0625 52.515625 -46.898438 50.046875 -48.984375 C 47.585938 -51.066406 44.519531 -52.109375 40.84375 -52.109375 Z"/>
    </g>
  </g>
</svg>

