<svg xmlns="http://www.w3.org/2000/svg" width="700" viewBox="0 0 550 200" height="200" preserveAspectRatio="xMidYMid meet" version="1.0">
  <defs>
    <clipPath id="waveformClipH">
      <path d="M 54 127 L 101 127 L 101 147 L 54 147 Z" clip-rule="nonzero"/>
    </clipPath>
  </defs>
  
  <!-- Shadow text layer for Preke -->
  <g fill="#ffffff" fill-opacity="0.15">
    <g transform="translate(21, 124)">
      <path d="M 50.359375 -69.03125 C 56.546875 -69.03125 62.164062 -67.585938 67.21875 -64.703125 C 72.269531 -61.828125 76.273438 -57.734375 79.234375 -52.421875 C 82.203125 -47.117188 83.6875 -40.960938 83.6875 -33.953125 C 83.6875 -26.929688 82.203125 -20.769531 79.234375 -15.46875 C 76.273438 -10.164062 72.269531 -6.070312 67.21875 -3.1875 C 62.164062 -0.3125 56.546875 1.125 50.359375 1.125 C 42.429688 1.125 36.128906 -1.253906 31.453125 -6.015625 L 31.453125 24.296875 L 7.640625 24.296875 L 7.640625 -67.90625 L 30.3125 -67.90625 L 30.3125 -61.140625 C 34.738281 -66.398438 41.421875 -69.03125 50.359375 -69.03125 Z M 45.359375 -17.796875 C 49.523438 -17.796875 52.945312 -19.234375 55.625 -22.109375 C 58.300781 -24.992188 59.640625 -28.941406 59.640625 -33.953125 C 59.640625 -38.960938 58.300781 -42.90625 55.625 -45.78125 C 52.945312 -48.664062 49.523438 -50.109375 45.359375 -50.109375 C 41.179688 -50.109375 37.753906 -48.664062 35.078125 -45.78125 C 32.398438 -42.90625 31.0625 -38.960938 31.0625 -33.953125 C 31.0625 -28.941406 32.398438 -24.992188 35.078125 -22.109375 C 37.753906 -19.234375 41.179688 -17.796875 45.359375 -17.796875 Z"/>
    </g>
    <g transform="translate(95, 124)">
      <path d="M 30.3125 -59.765625 C 32.738281 -62.847656 35.894531 -65.160156 39.78125 -66.703125 C 43.664062 -68.253906 48.113281 -69.03125 53.125 -69.03125 L 53.125 -47.609375 C 50.945312 -47.859375 49.148438 -47.984375 47.734375 -47.984375 C 42.640625 -47.984375 38.648438 -46.601562 35.765625 -43.84375 C 32.890625 -41.09375 31.453125 -36.875 31.453125 -31.1875 L 31.453125 0 L 7.640625 0 L 7.640625 -67.90625 L 30.3125 -67.90625 Z"/>
    </g>
    <g transform="translate(138, 124)">
      <path d="M 77.046875 -33.828125 C 77.046875 -33.660156 76.921875 -31.695312 76.671875 -27.9375 L 27.3125 -27.9375 C 28.3125 -24.425781 30.25 -21.726562 33.125 -19.84375 C 36.007812 -17.96875 39.625 -17.03125 43.96875 -17.03125 C 47.226562 -17.03125 50.046875 -17.488281 52.421875 -18.40625 C 54.804688 -19.332031 57.210938 -20.835938 59.640625 -22.921875 L 72.15625 -9.890625 C 65.5625 -2.546875 55.914062 1.125 43.21875 1.125 C 35.289062 1.125 28.316406 -0.375 22.296875 -3.375 C 16.285156 -6.382812 11.628906 -10.5625 8.328125 -15.90625 C 5.023438 -21.25 3.375 -27.304688 3.375 -34.078125 C 3.375 -40.753906 4.984375 -46.742188 8.203125 -52.046875 C 11.421875 -57.359375 15.867188 -61.515625 21.546875 -64.515625 C 27.222656 -67.523438 33.613281 -69.03125 40.71875 -69.03125 C 47.476562 -69.03125 53.613281 -67.628906 59.125 -64.828125 C 64.644531 -62.035156 69.007812 -57.984375 72.21875 -52.671875 C 75.4375 -47.367188 77.046875 -41.085938 77.046875 -33.828125 Z M 40.84375 -52.109375 C 37.164062 -52.109375 34.09375 -51.066406 31.625 -48.984375 C 29.164062 -46.898438 27.601562 -44.0625 26.9375 -40.46875 L 54.75 -40.46875 C 54.082031 -44.0625 52.515625 -46.898438 50.046875 -48.984375 C 47.585938 -51.066406 44.519531 -52.109375 40.84375 -52.109375 Z"/>
    </g>
    <g transform="translate(206, 124)">
      <path d="M 38.46875 -23.796875 L 31.453125 -16.65625 L 31.453125 0 L 7.640625 0 L 7.640625 -92.953125 L 31.453125 -92.953125 L 31.453125 -44.21875 L 55.75 -67.90625 L 83.9375 -67.90625 L 55.75 -38.84375 L 86.3125 0 L 57.5 0 Z"/>
    </g>
    <g transform="translate(279, 124)">
      <path d="M 77.046875 -33.828125 C 77.046875 -33.660156 76.921875 -31.695312 76.671875 -27.9375 L 27.3125 -27.9375 C 28.3125 -24.425781 30.25 -21.726562 33.125 -19.84375 C 36.007812 -17.96875 39.625 -17.03125 43.96875 -17.03125 C 47.226562 -17.03125 50.046875 -17.488281 52.421875 -18.40625 C 54.804688 -19.332031 57.210938 -20.835938 59.640625 -22.921875 L 72.15625 -9.890625 C 65.5625 -2.546875 55.914062 1.125 43.21875 1.125 C 35.289062 1.125 28.316406 -0.375 22.296875 -3.375 C 16.285156 -6.382812 11.628906 -10.5625 8.328125 -15.90625 C 5.023438 -21.25 3.375 -27.304688 3.375 -34.078125 C 3.375 -40.753906 4.984375 -46.742188 8.203125 -52.046875 C 11.421875 -57.359375 15.867188 -61.515625 21.546875 -64.515625 C 27.222656 -67.523438 33.613281 -69.03125 40.71875 -69.03125 C 47.476562 -69.03125 53.613281 -67.628906 59.125 -64.828125 C 64.644531 -62.035156 69.007812 -57.984375 72.21875 -52.671875 C 75.4375 -47.367188 77.046875 -41.085938 77.046875 -33.828125 Z M 40.84375 -52.109375 C 37.164062 -52.109375 34.09375 -51.066406 31.625 -48.984375 C 29.164062 -46.898438 27.601562 -44.0625 26.9375 -40.46875 L 54.75 -40.46875 C 54.082031 -44.0625 52.515625 -46.898438 50.046875 -48.984375 C 47.585938 -51.066406 44.519531 -52.109375 40.84375 -52.109375 Z"/>
    </g>
  </g>
  
  <!-- Main white text for Preke -->
  <g fill="#ffffff" fill-opacity="1">
    <g transform="translate(18, 122)">
      <path d="M 50.359375 -69.03125 C 56.546875 -69.03125 62.164062 -67.585938 67.21875 -64.703125 C 72.269531 -61.828125 76.273438 -57.734375 79.234375 -52.421875 C 82.203125 -47.117188 83.6875 -40.960938 83.6875 -33.953125 C 83.6875 -26.929688 82.203125 -20.769531 79.234375 -15.46875 C 76.273438 -10.164062 72.269531 -6.070312 67.21875 -3.1875 C 62.164062 -0.3125 56.546875 1.125 50.359375 1.125 C 42.429688 1.125 36.128906 -1.253906 31.453125 -6.015625 L 31.453125 24.296875 L 7.640625 24.296875 L 7.640625 -67.90625 L 30.3125 -67.90625 L 30.3125 -61.140625 C 34.738281 -66.398438 41.421875 -69.03125 50.359375 -69.03125 Z M 45.359375 -17.796875 C 49.523438 -17.796875 52.945312 -19.234375 55.625 -22.109375 C 58.300781 -24.992188 59.640625 -28.941406 59.640625 -33.953125 C 59.640625 -38.960938 58.300781 -42.90625 55.625 -45.78125 C 52.945312 -48.664062 49.523438 -50.109375 45.359375 -50.109375 C 41.179688 -50.109375 37.753906 -48.664062 35.078125 -45.78125 C 32.398438 -42.90625 31.0625 -38.960938 31.0625 -33.953125 C 31.0625 -28.941406 32.398438 -24.992188 35.078125 -22.109375 C 37.753906 -19.234375 41.179688 -17.796875 45.359375 -17.796875 Z"/>
    </g>
    <g transform="translate(93, 122)">
      <path d="M 30.3125 -59.765625 C 32.738281 -62.847656 35.894531 -65.160156 39.78125 -66.703125 C 43.664062 -68.253906 48.113281 -69.03125 53.125 -69.03125 L 53.125 -47.609375 C 50.945312 -47.859375 49.148438 -47.984375 47.734375 -47.984375 C 42.640625 -47.984375 38.648438 -46.601562 35.765625 -43.84375 C 32.890625 -41.09375 31.453125 -36.875 31.453125 -31.1875 L 31.453125 0 L 7.640625 0 L 7.640625 -67.90625 L 30.3125 -67.90625 Z"/>
    </g>
    <g transform="translate(135, 122)">
      <path d="M 77.046875 -33.828125 C 77.046875 -33.660156 76.921875 -31.695312 76.671875 -27.9375 L 27.3125 -27.9375 C 28.3125 -24.425781 30.25 -21.726562 33.125 -19.84375 C 36.007812 -17.96875 39.625 -17.03125 43.96875 -17.03125 C 47.226562 -17.03125 50.046875 -17.488281 52.421875 -18.40625 C 54.804688 -19.332031 57.210938 -20.835938 59.640625 -22.921875 L 72.15625 -9.890625 C 65.5625 -2.546875 55.914062 1.125 43.21875 1.125 C 35.289062 1.125 28.316406 -0.375 22.296875 -3.375 C 16.285156 -6.382812 11.628906 -10.5625 8.328125 -15.90625 C 5.023438 -21.25 3.375 -27.304688 3.375 -34.078125 C 3.375 -40.753906 4.984375 -46.742188 8.203125 -52.046875 C 11.421875 -57.359375 15.867188 -61.515625 21.546875 -64.515625 C 27.222656 -67.523438 33.613281 -69.03125 40.71875 -69.03125 C 47.476562 -69.03125 53.613281 -67.628906 59.125 -64.828125 C 64.644531 -62.035156 69.007812 -57.984375 72.21875 -52.671875 C 75.4375 -47.367188 77.046875 -41.085938 77.046875 -33.828125 Z M 40.84375 -52.109375 C 37.164062 -52.109375 34.09375 -51.066406 31.625 -48.984375 C 29.164062 -46.898438 27.601562 -44.0625 26.9375 -40.46875 L 54.75 -40.46875 C 54.082031 -44.0625 52.515625 -46.898438 50.046875 -48.984375 C 47.585938 -51.066406 44.519531 -52.109375 40.84375 -52.109375 Z"/>
    </g>
    <g transform="translate(203, 122)">
      <path d="M 38.46875 -23.796875 L 31.453125 -16.65625 L 31.453125 0 L 7.640625 0 L 7.640625 -92.953125 L 31.453125 -92.953125 L 31.453125 -44.21875 L 55.75 -67.90625 L 83.9375 -67.90625 L 55.75 -38.84375 L 86.3125 0 L 57.5 0 Z"/>
    </g>
    <g transform="translate(276, 122)">
      <path d="M 77.046875 -33.828125 C 77.046875 -33.660156 76.921875 -31.695312 76.671875 -27.9375 L 27.3125 -27.9375 C 28.3125 -24.425781 30.25 -21.726562 33.125 -19.84375 C 36.007812 -17.96875 39.625 -17.03125 43.96875 -17.03125 C 47.226562 -17.03125 50.046875 -17.488281 52.421875 -18.40625 C 54.804688 -19.332031 57.210938 -20.835938 59.640625 -22.921875 L 72.15625 -9.890625 C 65.5625 -2.546875 55.914062 1.125 43.21875 1.125 C 35.289062 1.125 28.316406 -0.375 22.296875 -3.375 C 16.285156 -6.382812 11.628906 -10.5625 8.328125 -15.90625 C 5.023438 -21.25 3.375 -27.304688 3.375 -34.078125 C 3.375 -40.753906 4.984375 -46.742188 8.203125 -52.046875 C 11.421875 -57.359375 15.867188 -61.515625 21.546875 -64.515625 C 27.222656 -67.523438 33.613281 -69.03125 40.71875 -69.03125 C 47.476562 -69.03125 53.613281 -67.628906 59.125 -64.828125 C 64.644531 -62.035156 69.007812 -57.984375 72.21875 -52.671875 C 75.4375 -47.367188 77.046875 -41.085938 77.046875 -33.828125 Z M 40.84375 -52.109375 C 37.164062 -52.109375 34.09375 -51.066406 31.625 -48.984375 C 29.164062 -46.898438 27.601562 -44.0625 26.9375 -40.46875 L 54.75 -40.46875 C 54.082031 -44.0625 52.515625 -46.898438 50.046875 -48.984375 C 47.585938 -51.066406 44.519531 -52.109375 40.84375 -52.109375 Z"/>
    </g>
  </g>
  
  <!-- Gold waveform -->
  <g clip-path="url(#waveformClipH)">
    <path fill="#d9981e" d="M 43.386719 137.464844 C 43.09375 137.464844 42.851562 137.222656 42.851562 136.925781 L 42.851562 136.363281 C 42.851562 136.066406 43.09375 135.824219 43.386719 135.824219 C 43.683594 135.824219 43.925781 136.066406 43.925781 136.363281 L 43.925781 136.925781 C 43.925781 137.222656 43.683594 137.464844 43.386719 137.464844 Z M 45.917969 137.773438 L 45.917969 135.515625 C 45.917969 135.21875 45.679688 134.980469 45.382812 134.980469 C 45.085938 134.980469 44.847656 135.21875 44.847656 135.515625 L 44.847656 137.773438 C 44.847656 138.070312 45.085938 138.3125 45.382812 138.3125 C 45.679688 138.3125 45.917969 138.070312 45.917969 137.773438 Z M 47.914062 139.652344 L 47.914062 133.636719 C 47.914062 133.339844 47.671875 133.101562 47.378906 133.101562 C 47.082031 133.101562 46.839844 133.339844 46.839844 133.636719 L 46.839844 139.652344 C 46.839844 139.949219 47.082031 140.1875 47.378906 140.1875 C 47.671875 140.1875 47.914062 139.949219 47.914062 139.652344 Z M 49.910156 137.773438 L 49.910156 135.515625 C 49.910156 135.21875 49.667969 134.980469 49.371094 134.980469 C 49.074219 134.980469 48.835938 135.21875 48.835938 135.515625 L 48.835938 137.773438 C 48.835938 138.070312 49.074219 138.3125 49.371094 138.3125 C 49.667969 138.3125 49.910156 138.070312 49.910156 137.773438 Z M 51.902344 137.246094 L 51.902344 136.042969 C 51.902344 135.746094 51.664062 135.507812 51.367188 135.507812 C 51.070312 135.507812 50.832031 135.746094 50.832031 136.042969 L 50.832031 137.246094 C 50.832031 137.542969 51.070312 137.785156 51.367188 137.785156 C 51.664062 137.785156 51.902344 137.542969 51.902344 137.246094 Z M 53.898438 138.453125 L 53.898438 134.839844 C 53.898438 134.542969 53.65625 134.300781 53.359375 134.300781 C 53.0625 134.300781 52.824219 134.542969 52.824219 134.839844 L 52.824219 138.453125 C 52.824219 138.75 53.0625 138.988281 53.359375 138.988281 C 53.65625 138.988281 53.898438 138.75 53.898438 138.453125 Z M 55.890625 140.457031 L 55.890625 132.832031 C 55.890625 132.535156 55.652344 132.296875 55.355469 132.296875 C 55.058594 132.296875 54.820312 132.535156 54.820312 132.832031 L 54.820312 140.457031 C 54.820312 140.753906 55.058594 140.992188 55.355469 140.992188 C 55.652344 140.992188 55.890625 140.753906 55.890625 140.457031 Z M 57.886719 142.914062 L 57.886719 130.378906 C 57.886719 130.082031 57.648438 129.839844 57.351562 129.839844 C 57.054688 129.839844 56.816406 130.082031 56.816406 130.378906 L 56.816406 142.914062 C 56.816406 143.210938 57.054688 143.449219 57.351562 143.449219 C 57.648438 143.449219 57.886719 143.210938 57.886719 142.914062 Z M 59.882812 140.273438 L 59.882812 133.015625 C 59.882812 132.71875 59.640625 132.480469 59.34375 132.480469 C 59.046875 132.480469 58.808594 132.71875 58.808594 133.015625 L 58.808594 140.273438 C 58.808594 140.570312 59.046875 140.808594 59.34375 140.808594 C 59.640625 140.808594 59.882812 140.570312 59.882812 140.273438 Z M 61.875 138.453125 L 61.875 134.839844 C 61.875 134.542969 61.636719 134.300781 61.339844 134.300781 C 61.042969 134.300781 60.804688 134.542969 60.804688 134.839844 L 60.804688 138.453125 C 60.804688 138.75 61.042969 138.988281 61.339844 138.988281 C 61.636719 138.988281 61.875 138.75 61.875 138.453125 Z M 63.871094 137.773438 L 63.871094 135.515625 C 63.871094 135.21875 63.632812 134.980469 63.335938 134.980469 C 63.039062 134.980469 62.796875 135.21875 62.796875 135.515625 L 62.796875 137.773438 C 62.796875 138.070312 63.039062 138.3125 63.335938 138.3125 C 63.632812 138.3125 63.871094 138.070312 63.871094 137.773438 Z M 65.863281 137.050781 L 65.863281 136.238281 C 65.863281 135.945312 65.625 135.703125 65.328125 135.703125 C 65.03125 135.703125 64.792969 135.945312 64.792969 136.238281 L 64.792969 137.050781 C 64.792969 137.347656 65.03125 137.585938 65.328125 137.585938 C 65.625 137.585938 65.863281 137.347656 65.863281 137.050781 Z M 67.859375 138.238281 L 67.859375 135.050781 C 67.859375 134.753906 67.621094 134.511719 67.324219 134.511719 C 67.027344 134.511719 66.789062 134.753906 66.789062 135.050781 L 66.789062 138.238281 C 66.789062 138.535156 67.027344 138.777344 67.324219 138.777344 C 67.621094 138.777344 67.859375 138.535156 67.859375 138.238281 Z M 69.855469 137.578125 L 69.855469 135.714844 C 69.855469 135.417969 69.613281 135.175781 69.320312 135.175781 C 69.023438 135.175781 68.78125 135.417969 68.78125 135.714844 L 68.78125 137.578125 C 68.78125 137.871094 69.023438 138.113281 69.320312 138.113281 C 69.613281 138.113281 69.855469 137.871094 69.855469 137.578125 Z M 71.847656 139.890625 L 71.847656 133.398438 C 71.847656 133.101562 71.609375 132.863281 71.3125 132.863281 C 71.015625 132.863281 70.777344 133.101562 70.777344 133.398438 L 70.777344 139.890625 C 70.777344 140.1875 71.015625 140.429688 71.3125 140.429688 C 71.609375 140.429688 71.847656 140.1875 71.847656 139.890625 Z M 73.84375 142.714844 L 73.84375 130.574219 C 73.84375 130.277344 73.605469 130.039062 73.308594 130.039062 C 73.011719 130.039062 72.769531 130.277344 72.769531 130.574219 L 72.769531 142.714844 C 72.769531 143.011719 73.011719 143.25 73.308594 143.25 C 73.605469 143.25 73.84375 143.011719 73.84375 142.714844 Z M 75.839844 146.046875 L 75.839844 127.242188 C 75.839844 126.945312 75.597656 126.707031 75.300781 126.707031 C 75.007812 126.707031 74.765625 126.945312 74.765625 127.242188 L 74.765625 146.046875 C 74.765625 146.34375 75.007812 146.582031 75.300781 146.582031 C 75.597656 146.582031 75.839844 146.34375 75.839844 146.046875 Z M 77.832031 142.714844 L 77.832031 130.574219 C 77.832031 130.277344 77.59375 130.039062 77.296875 130.039062 C 77 130.039062 76.757812 130.277344 76.757812 130.574219 L 76.757812 142.714844 C 76.757812 143.011719 77 143.25 77.296875 143.25 C 77.59375 143.25 77.832031 143.011719 77.832031 142.714844 Z M 79.828125 139.890625 L 79.828125 133.398438 C 79.828125 133.101562 79.585938 132.863281 79.292969 132.863281 C 78.996094 132.863281 78.753906 133.101562 78.753906 133.398438 L 78.753906 139.890625 C 78.753906 140.1875 78.996094 140.429688 79.292969 140.429688 C 79.585938 140.429688 79.828125 140.1875 79.828125 139.890625 Z M 81.824219 137.632812 L 81.824219 135.65625 C 81.824219 135.359375 81.582031 135.121094 81.285156 135.121094 C 80.988281 135.121094 80.75 135.359375 80.75 135.65625 L 80.75 137.632812 C 80.75 137.929688 80.988281 138.167969 81.285156 138.167969 C 81.582031 138.167969 81.824219 137.929688 81.824219 137.632812 Z M 83.816406 138.324219 L 83.816406 134.964844 C 83.816406 134.667969 83.578125 134.429688 83.28125 134.429688 C 82.984375 134.429688 82.746094 134.667969 82.746094 134.964844 L 82.746094 138.324219 C 82.746094 138.621094 82.984375 138.859375 83.28125 138.859375 C 83.578125 138.859375 83.816406 138.621094 83.816406 138.324219 Z M 85.8125 139.890625 L 85.8125 133.398438 C 85.8125 133.101562 85.570312 132.863281 85.273438 132.863281 C 84.980469 132.863281 84.738281 133.101562 84.738281 133.398438 L 84.738281 139.890625 C 84.738281 140.1875 84.980469 140.429688 85.273438 140.429688 C 85.570312 140.429688 85.8125 140.1875 85.8125 139.890625 Z M 87.804688 142.191406 L 87.804688 131.097656 C 87.804688 130.800781 87.566406 130.5625 87.269531 130.5625 C 86.972656 130.5625 86.734375 130.800781 86.734375 131.097656 L 86.734375 142.191406 C 86.734375 142.488281 86.972656 142.730469 87.269531 142.730469 C 86.566406 142.730469 87.804688 142.488281 87.804688 142.191406 Z M 89.800781 139.890625 L 89.800781 133.398438 C 89.800781 133.101562 89.5625 132.863281 89.265625 132.863281 C 88.96875 132.863281 88.730469 133.101562 88.730469 133.398438 L 88.730469 139.890625 C 88.730469 140.1875 88.96875 140.429688 89.265625 140.429688 C 89.558594 140.429688 89.800781 140.1875 89.800781 139.890625 Z M 91.796875 138.324219 L 91.796875 134.964844 C 91.796875 134.667969 91.554688 134.429688 91.257812 134.429688 C 90.960938 134.429688 90.722656 134.667969 90.722656 134.964844 L 90.722656 138.324219 C 90.722656 138.621094 90.960938 138.859375 91.257812 138.859375 C 91.554688 138.859375 91.796875 138.621094 91.796875 138.324219 Z M 93.789062 137.308594 L 93.789062 135.980469 C 93.789062 135.683594 93.550781 135.445312 93.253906 135.445312 C 92.957031 135.445312 92.71875 135.683594 92.71875 135.980469 L 92.71875 137.308594 C 92.71875 137.605469 92.957031 137.84375 93.253906 137.84375 C 93.550781 137.84375 93.789062 137.605469 93.789062 137.308594 Z M 95.785156 138 L 95.785156 135.289062 C 95.785156 134.992188 95.546875 134.753906 95.25 134.753906 C 94.953125 134.753906 94.710938 134.992188 94.710938 135.289062 L 94.710938 138 C 94.710938 138.296875 94.953125 138.535156 95.25 138.535156 C 95.542969 138.535156 95.785156 138.296875 95.785156 138 Z M 97.777344 137.507812 L 97.777344 135.785156 C 97.777344 135.488281 97.539062 135.246094 97.242188 135.246094 C 96.945312 135.246094 96.707031 135.488281 96.707031 135.785156 L 96.707031 137.507812 C 96.707031 137.800781 96.945312 138.042969 97.242188 138.042969 C 97.539062 138.042969 97.777344 137.800781 97.777344 137.507812 Z M 99.773438 139.042969 L 99.773438 134.246094 C 99.773438 133.949219 99.535156 133.707031 99.238281 133.707031 C 98.941406 133.707031 98.703125 133.949219 98.703125 134.246094 L 98.703125 139.042969 C 98.703125 139.339844 98.941406 139.582031 99.238281 139.582031 C 99.535156 139.582031 99.773438 139.339844 99.773438 139.042969 Z"/>
  </g>
  
  <!-- "Studio" text to the right - matching style, in gold -->
  <text x="380" y="122" 
        font-family="system-ui, -apple-system, BlinkMacSystemFont, 'Segoe UI', sans-serif" 
        font-size="58" 
        font-weight="700" 
        fill="#d9981e" 
        letter-spacing="3">Studio</text>
</svg>

